<svg width="38" height="42" viewBox="0 0 38 42" fill="white" xmlns="http://www.w3.org/2000/svg">
  <path d="M19.0373 0L24.2087 8.95732L19.0373 5.97154L13.8657 8.95732L19.0373 0Z"/>
  <path d="M19.0373 42.0003L24.2087 33.043L19.0373 36.0288L13.8657 33.043L19.0373 42.0003Z"/>
  <path d="M37.2381 10.5L32.0667 19.4573V13.4858L26.895 10.5H37.2381Z"/>
  <path d="M0.849121 31.4993H11.1922L6.02066 28.5136V22.542L0.849121 31.4993Z"/>
  <path d="M37.2181 31.4993H26.875L32.0467 28.5136V22.542L37.2181 31.4993Z"/>
  <path d="M0.878418 10.5L6.04994 19.4573L6.04996 13.4858L11.2215 10.5H0.878418Z"/>
  <path d="M19.0395 11.1943L27.7081 16.1991V26.2086L19.0395 31.2133L10.3711 26.2086V16.1991L19.0395 11.1943Z"/>
</svg>
